<svg xmlns="http://www.w3.org/2000/svg" xmlns:xlink="http://www.w3.org/1999/xlink" version="1.1" x="0px" y="0px" viewBox="0 0 48 60" enable-background="new 0 0 48 48" xml:space="preserve"><g><g><path fill="none" stroke="#000000" stroke-width="2" stroke-linecap="round" stroke-linejoin="round" stroke-miterlimit="10" d="    M10.349,40.063c2.562,0,4.639-2.102,4.639-4.697c0-2.595-2.077-4.696-4.639-4.696s-4.639,2.102-4.639,4.696    C5.709,37.962,7.787,40.063,10.349,40.063z"/><polyline fill="none" stroke="#000000" stroke-width="2" stroke-linecap="round" stroke-linejoin="round" stroke-miterlimit="10" points="    9.983,40.557 11.831,47 13.286,44.688 16.201,45.317 12.8,40.063   "/><polyline fill="none" stroke="#000000" stroke-width="2" stroke-linecap="round" stroke-linejoin="round" stroke-miterlimit="10" points="    7.554,40.063 4.835,43.803 7.069,44.146 7.992,47 9.983,41.735   "/></g><polyline fill="none" stroke="#000000" stroke-width="2" stroke-linecap="round" stroke-linejoin="round" stroke-miterlimit="10" points="   5.995,36.985 1,36.985 1,1 47,1 47,36.985 14.703,36.985  "/><path fill="none" stroke="#000000" stroke-width="2" stroke-linecap="round" stroke-linejoin="round" stroke-miterlimit="10" d="   M9.245,12.652c3.333-3.773,8.681-6.219,14.71-6.219c6.083,0,11.473,2.49,14.799,6.32"/><rect x="20.191" y="11.752" fill="none" stroke="#000000" stroke-width="2" stroke-linecap="round" stroke-linejoin="round" stroke-miterlimit="10" width="7.619" height="9.982"/><line fill="none" stroke="#000000" stroke-width="2" stroke-linecap="round" stroke-linejoin="round" stroke-miterlimit="10" x1="15.486" y1="27.823" x2="32.514" y2="27.823"/></g><text x="0" y="63" fill="#000000" font-size="5px" font-weight="bold" font-family="'Helvetica Neue', Helvetica, Arial-Unicode, Arial, Sans-serif">Created by Creative Stall</text><text x="0" y="68" fill="#000000" font-size="5px" font-weight="bold" font-family="'Helvetica Neue', Helvetica, Arial-Unicode, Arial, Sans-serif">from the Noun Project</text></svg>